<svg version="1.1"
      xmlns="http://www.w3.org/2000/svg"
      xmlns:xlink="http://www.w3.org/1999/xlink"  id="snapshot-74714" width="250" height="250" viewBox="0 0 250 250"><desc>This image was made on Patterninja.com</desc><defs>
<!-- image 42567 -->
<g id="transformed-42567" data-image="42567" transform="translate(-125, 25) rotate(2, 125, 125)"><g transform="translate(250, 0) scale(-1, 1)"><svg version="1.1" width="250px" height="250px" viewBox="0 0 250 250"><g id="original-42567"><svg xmlns="http://www.w3.org/2000/svg" viewBox="0 0 1000 1000" xmlns:xlink="http://www.w3.org/1999/xlink" version="1.1" preserveAspectRatio="xMidYMid meet">
  <path d="M193.99 18.13c1.46 9.52-.24 10.5-7.08 4.4-4.15-3.66-4.88-3.66-6.84-.73-1.47 1.95-2.44 6.11-2.44 9.28 0 5.13-.73 5.62-7.33 4.15-7.33-1.71-7.57-1.47-5.86 5.37 2.69 10.99 2.44 11.48-3.18 12.46-3.17.49-5.62 1.95-5.62 3.17 0 4.88-.49 6.11-3.91 9.77-1.95 2.2-3.17 7.57-2.93 12.21.73 7.08-.24 8.31-4.64 9.04-4.4.73-5.62 2.44-5.62 8.3 0 4.88-2.93 10.75-8.55 17.34-4.64 5.37-8.55 11.48-8.55 13.19 0 3.91 10.99 4.15 25.89.49 9.28-2.44 11.72-2.2 14.9.98 3.17 3.17 3.42 5.37.73 16.12-1.71 7.08-2.2 16.36-1.47 20.76 1.96 10.02 17.1 24.67 28.09 27.11 7.57 1.71 8.79 1.22 23.94-9.77 8.3-5.86 12.21 14.9 8.3 42.74-1.71 11.48-3.91 34.68-5.13 51.53-1.47 24.91-3.66 35.9-10.75 57.64-6.35 20.02-9.28 34.44-10.99 55.93-1.47 16.12-4.15 35.17-6.11 42.5-6.11 21.74-9.52 60.08-8.3 90.36 1.46 32.48 2.93 36.39 28.33 73.27 22.47 32.48 29.31 40.79 42.98 51.53 10.99 8.79 12.94 9.53 27.84 9.53 15.14 0 16.36.49 26.62 10.01 6.11 5.38 19.05 13.68 29.06 18.32 9.77 4.4 20.51 10.99 23.45 14.65 3.17 3.42 11.72 9.53 19.05 13.19 21 10.74 33.7 21 41.52 33.7 3.91 6.59 11.48 15.63 17.1 20.52 5.62 5.13 9.77 11.23 9.77 14.16 0 10.01 7.08 19.05 20.03 25.4 6.84 3.42 14.65 6.35 17.1 6.35 5.86 0 16.61 11.48 16.61 17.59 0 13.19-35.17 95.98-45.67 107.46-4.88 5.62-24.18 5.86-40.79.98-8.06-2.44-13.68-2.93-17.58-1.46-3.17 1.22-5.86 2.69-5.86 3.42 0 .49 6.11 2.93 13.43 5.13 7.33 2.44 13.43 5.13 13.43 6.11s-10.75 2.44-23.69 3.17c-28.82 1.95-38.83 4.64-48.36 12.7l-7.33 6.35 28.09-1.46c15.39-.73 38.1-.49 50.07.49 21 1.95 21.98 2.2 22.71 8.06 1.71 12.46 5.37 11.48 21.49-5.86l15.63-16.85 26.87 1.22c14.65.49 26.87.49 26.87-.25 0-.98-6.11-3.66-13.92-6.35-8.55-2.93-15.63-7.57-18.8-11.72l-4.88-6.59 5.86-23.45c5.62-22.71 5.86-23.2 11.97-21.74 3.42.73 15.63 1.95 27.11 2.68 24.91 1.47 27.11 2.2 25.4 6.84-1.96 5.13-22.22 17.58-33.71 20.76-9.03 2.44-23.44 13.43-23.44 17.83 0 3.66 14.41 1.96 24.91-2.69 35.17-15.38 41.52-19.05 48.6-26.13 9.28-9.53 28.09-15.14 36.15-10.75 2.93 1.46 8.3 9.04 12.21 16.61 7.33 14.41 13.68 21.98 16.36 19.29.98-.73-1.71-11.72-5.86-24.18-3.91-12.46-8.06-29.55-8.79-37.61l-1.71-15.14 9.28 3.42c5.13 1.71 14.17 3.18 20.27 3.18h10.98l-12.94-4.64c-14.9-5.37-31.02-17.1-35.66-26.62-3.66-6.84-4.88-21.49-4.4-45.18l.49-14.41 27.6 1.71c21.25 1.22 28.82.73 33.46-1.96 41.03-22.71 68.14-39.56 72.78-44.94 20.03-23.45 24.91-29.55 36.88-46.4 27.84-40.05 36.88-67.16 36.88-111.61 0-19.54-.73-23.2-6.11-31.02-11.72-17.34-11.23-20.27 10.26-48.6l19.05-25.4.98-27.35c.73-25.89.98-27.35 6.35-28.58 2.93-.73 10.01-6.35 15.63-12.46 9.52-10.5 12.7-19.54 7.57-21.25-1.71-.49-2.93-10.99-3.42-25.4-.24-17.34-1.71-26.62-4.39-30.53-1.96-3.17-4.15-13.68-5.13-22.96-.98-14.65-.49-18.07 3.42-22.96 5.86-7.08 6.35-25.15.73-30.53-3.42-3.66-3.18-5.37 2.69-20.51 3.91-10.02 6.11-20.03 5.62-24.91-.73-7.33-1.71-8.55-7.08-8.55l-6.35.24 3.66-10.26c3.91-10.26 3.66-10.5-3.42-20.76-3.91-5.62-8.79-13.68-10.99-17.83-2.2-4.15-8.79-11.23-14.41-15.87-5.62-4.4-13.92-13.43-18.8-20.03-4.64-6.59-10.01-11.97-11.72-11.97-1.96 0-3.66-2.44-4.15-5.62-.73-4.88-2.2-5.37-15.88-6.11-13.92-.73-15.39-1.22-16.85-6.84-1.71-6.84-11.97-15.63-18.32-15.63-18.07 0-53.49 24.67-63.5 44.2-6.11 12.21-16.12 50.07-18.32 69.12-1.22 10.26-3.18 15.88-6.11 18.07-3.91 2.69-4.4 5.62-3.18 25.64 1.47 22.47 1.47 22.47-6.59 34.68-4.64 6.59-14.41 18.32-21.98 25.89-23.45 23.45-48.36 29.55-125.29 30.04-60.08.25-59.59.49-85.97-31.5-22.23-26.87-22.71-27.84-45.43-79.37-31.5-70.83-57.15-101.6-105.99-125.78-24.18-11.97-26.13-15.14-13.19-21.49 9.04-4.64 11.48-10.5 6.59-15.88-2.2-2.44-4.15-6.35-4.15-8.55 0-5.62-3.91-5.13-11.72.98l-6.59 5.13-.73-10.01c-.98-11.97-3.91-12.7-7.82-2.2l-3.17 8.06-1.47-7.08c-1.96-9.77-6.84-10.74-8.79-1.71-1.95 9.53-5.86 9.53-14.65.25-9.05-9.53-11-9.28-9.29 1.22zM588.9 789.89c1.71 4.88-4.64 40.3-10.99 60.08-2.69 9.04-8.3 20.27-12.46 25.16l-7.08 8.79h-53.24l2.2-6.84c8.3-28.33 22.22-48.85 39.08-57.64 10.01-5.38 21.49-15.14 32.48-28.09 4.88-6.1 8.06-6.59 10.01-1.46z" fill="rgba(0, 255, 255, 0.5)" stroke="none"/>
</svg>
</g></svg></g></g>
<!-- /image 42567 -->

<!-- image 32653 -->
<g id="transformed-32653" data-image="32653" transform="translate(-50, -75) rotate(355, 125, 125)"><g><svg version="1.1" width="250px" height="250px" viewBox="0 0 250 250"><g id="original-32653"><svg xmlns="http://www.w3.org/2000/svg" viewBox="0 0 1000 1000" xmlns:xlink="http://www.w3.org/1999/xlink" version="1.1" preserveAspectRatio="xMidYMid meet">
  <path d="M193.99 18.13c1.46 9.52-.24 10.5-7.08 4.4-4.15-3.66-4.88-3.66-6.84-.73-1.47 1.95-2.44 6.11-2.44 9.28 0 5.13-.73 5.62-7.33 4.15-7.33-1.71-7.57-1.47-5.86 5.37 2.69 10.99 2.44 11.48-3.18 12.46-3.17.49-5.62 1.95-5.62 3.17 0 4.88-.49 6.11-3.91 9.77-1.95 2.2-3.17 7.57-2.93 12.21.73 7.08-.24 8.31-4.64 9.04-4.4.73-5.62 2.44-5.62 8.3 0 4.88-2.93 10.75-8.55 17.34-4.64 5.37-8.55 11.48-8.55 13.19 0 3.91 10.99 4.15 25.89.49 9.28-2.44 11.72-2.2 14.9.98 3.17 3.17 3.42 5.37.73 16.12-1.71 7.08-2.2 16.36-1.47 20.76 1.96 10.02 17.1 24.67 28.09 27.11 7.57 1.71 8.79 1.22 23.94-9.77 8.3-5.86 12.21 14.9 8.3 42.74-1.71 11.48-3.91 34.68-5.13 51.53-1.47 24.91-3.66 35.9-10.75 57.64-6.35 20.02-9.28 34.44-10.99 55.93-1.47 16.12-4.15 35.17-6.11 42.5-6.11 21.74-9.52 60.08-8.3 90.36 1.46 32.48 2.93 36.39 28.33 73.27 22.47 32.48 29.31 40.79 42.98 51.53 10.99 8.79 12.94 9.53 27.84 9.53 15.14 0 16.36.49 26.62 10.01 6.11 5.38 19.05 13.68 29.06 18.32 9.77 4.4 20.51 10.99 23.45 14.65 3.17 3.42 11.72 9.53 19.05 13.19 21 10.74 33.7 21 41.52 33.7 3.91 6.59 11.48 15.63 17.1 20.52 5.62 5.13 9.77 11.23 9.77 14.16 0 10.01 7.08 19.05 20.03 25.4 6.84 3.42 14.65 6.35 17.1 6.35 5.86 0 16.61 11.48 16.61 17.59 0 13.19-35.17 95.98-45.67 107.46-4.88 5.62-24.18 5.86-40.79.98-8.06-2.44-13.68-2.93-17.58-1.46-3.17 1.22-5.86 2.69-5.86 3.42 0 .49 6.11 2.93 13.43 5.13 7.33 2.44 13.43 5.13 13.43 6.11s-10.75 2.44-23.69 3.17c-28.82 1.95-38.83 4.64-48.36 12.7l-7.33 6.35 28.09-1.46c15.39-.73 38.1-.49 50.07.49 21 1.95 21.98 2.2 22.71 8.06 1.71 12.46 5.37 11.48 21.49-5.86l15.63-16.85 26.87 1.22c14.65.49 26.87.49 26.87-.25 0-.98-6.11-3.66-13.92-6.35-8.55-2.93-15.63-7.57-18.8-11.72l-4.88-6.59 5.86-23.45c5.62-22.71 5.86-23.2 11.97-21.74 3.42.73 15.63 1.95 27.11 2.68 24.91 1.47 27.11 2.2 25.4 6.84-1.96 5.13-22.22 17.58-33.71 20.76-9.03 2.44-23.44 13.43-23.44 17.83 0 3.66 14.41 1.96 24.91-2.69 35.17-15.38 41.52-19.05 48.6-26.13 9.28-9.53 28.09-15.14 36.15-10.75 2.93 1.46 8.3 9.04 12.21 16.61 7.33 14.41 13.68 21.98 16.36 19.29.98-.73-1.71-11.72-5.86-24.18-3.91-12.46-8.06-29.55-8.79-37.61l-1.71-15.14 9.28 3.42c5.13 1.71 14.17 3.18 20.27 3.18h10.98l-12.94-4.64c-14.9-5.37-31.02-17.1-35.66-26.62-3.66-6.84-4.88-21.49-4.4-45.18l.49-14.41 27.6 1.71c21.25 1.22 28.82.73 33.46-1.96 41.03-22.71 68.14-39.56 72.78-44.94 20.03-23.45 24.91-29.55 36.88-46.4 27.84-40.05 36.88-67.16 36.88-111.61 0-19.54-.73-23.2-6.11-31.02-11.72-17.34-11.23-20.27 10.26-48.6l19.05-25.4.98-27.35c.73-25.89.98-27.35 6.35-28.58 2.93-.73 10.01-6.35 15.63-12.46 9.52-10.5 12.7-19.54 7.57-21.25-1.71-.49-2.93-10.99-3.42-25.4-.24-17.34-1.71-26.62-4.39-30.53-1.96-3.17-4.15-13.68-5.13-22.96-.98-14.65-.49-18.07 3.42-22.96 5.86-7.08 6.35-25.15.73-30.53-3.42-3.66-3.18-5.37 2.69-20.51 3.91-10.02 6.11-20.03 5.62-24.91-.73-7.33-1.71-8.55-7.08-8.55l-6.35.24 3.66-10.26c3.91-10.26 3.66-10.5-3.42-20.76-3.91-5.62-8.79-13.68-10.99-17.83-2.2-4.15-8.79-11.23-14.41-15.87-5.62-4.4-13.92-13.43-18.8-20.03-4.64-6.59-10.01-11.97-11.72-11.97-1.96 0-3.66-2.44-4.15-5.62-.73-4.88-2.2-5.37-15.88-6.11-13.92-.73-15.39-1.22-16.85-6.84-1.71-6.84-11.97-15.63-18.32-15.63-18.07 0-53.49 24.67-63.5 44.2-6.11 12.21-16.12 50.07-18.32 69.12-1.22 10.26-3.18 15.88-6.11 18.07-3.91 2.69-4.4 5.62-3.18 25.64 1.47 22.47 1.47 22.47-6.59 34.68-4.64 6.59-14.41 18.32-21.98 25.89-23.45 23.45-48.36 29.55-125.29 30.04-60.08.25-59.59.49-85.97-31.5-22.23-26.87-22.71-27.84-45.43-79.37-31.5-70.83-57.15-101.6-105.99-125.78-24.18-11.97-26.13-15.14-13.19-21.49 9.04-4.64 11.48-10.5 6.59-15.88-2.2-2.44-4.15-6.35-4.15-8.55 0-5.62-3.91-5.13-11.72.98l-6.59 5.13-.73-10.01c-.98-11.97-3.91-12.7-7.82-2.2l-3.17 8.06-1.47-7.08c-1.96-9.77-6.84-10.74-8.79-1.71-1.95 9.53-5.86 9.53-14.65.25-9.05-9.53-11-9.28-9.29 1.22zM588.9 789.89c1.71 4.88-4.64 40.3-10.99 60.08-2.69 9.04-8.3 20.27-12.46 25.16l-7.08 8.79h-53.24l2.2-6.84c8.3-28.33 22.22-48.85 39.08-57.64 10.01-5.38 21.49-15.14 32.48-28.09 4.88-6.1 8.06-6.59 10.01-1.46z" fill="rgba(255, 255, 0, 0.5)" stroke="none"/>
</svg>
</g></svg></g></g>
<!-- /image 32653 -->

<!-- image 17172 -->
<g id="transformed-17172" data-image="17172" transform="translate(75, -125) rotate(0, 125, 125)"><g transform="translate(250, 0) scale(-1, 1)"><svg version="1.1" width="250px" height="250px" viewBox="0 0 250 250"><g id="original-17172"><svg xmlns="http://www.w3.org/2000/svg" viewBox="0 0 1000 1000" xmlns:xlink="http://www.w3.org/1999/xlink" version="1.1" preserveAspectRatio="xMidYMid meet">
  <path d="M193.99 18.13c1.46 9.52-.24 10.5-7.08 4.4-4.15-3.66-4.88-3.66-6.84-.73-1.47 1.95-2.44 6.11-2.44 9.28 0 5.13-.73 5.62-7.33 4.15-7.33-1.71-7.57-1.47-5.86 5.37 2.69 10.99 2.44 11.48-3.18 12.46-3.17.49-5.62 1.95-5.62 3.17 0 4.88-.49 6.11-3.91 9.77-1.95 2.2-3.17 7.57-2.93 12.21.73 7.08-.24 8.31-4.64 9.04-4.4.73-5.62 2.44-5.62 8.3 0 4.88-2.93 10.75-8.55 17.34-4.64 5.37-8.55 11.48-8.55 13.19 0 3.91 10.99 4.15 25.89.49 9.28-2.44 11.72-2.2 14.9.98 3.17 3.17 3.42 5.37.73 16.12-1.71 7.08-2.2 16.36-1.47 20.76 1.96 10.02 17.1 24.67 28.09 27.11 7.57 1.71 8.79 1.22 23.94-9.77 8.3-5.86 12.21 14.9 8.3 42.74-1.71 11.48-3.91 34.68-5.13 51.53-1.47 24.91-3.66 35.9-10.75 57.64-6.35 20.02-9.28 34.44-10.99 55.93-1.47 16.12-4.15 35.17-6.11 42.5-6.11 21.74-9.52 60.08-8.3 90.36 1.46 32.48 2.93 36.39 28.33 73.27 22.47 32.48 29.31 40.79 42.98 51.53 10.99 8.79 12.94 9.53 27.84 9.53 15.14 0 16.36.49 26.62 10.01 6.11 5.38 19.05 13.68 29.06 18.32 9.77 4.4 20.51 10.99 23.45 14.65 3.17 3.42 11.72 9.53 19.05 13.19 21 10.74 33.7 21 41.52 33.7 3.91 6.59 11.48 15.63 17.1 20.52 5.62 5.13 9.77 11.23 9.77 14.16 0 10.01 7.08 19.05 20.03 25.4 6.84 3.42 14.65 6.35 17.1 6.35 5.86 0 16.61 11.48 16.61 17.59 0 13.19-35.17 95.98-45.67 107.46-4.88 5.62-24.18 5.86-40.79.98-8.06-2.44-13.68-2.93-17.58-1.46-3.17 1.22-5.86 2.69-5.86 3.42 0 .49 6.11 2.93 13.43 5.13 7.33 2.44 13.43 5.13 13.43 6.11s-10.75 2.44-23.69 3.17c-28.82 1.95-38.83 4.64-48.36 12.7l-7.33 6.35 28.09-1.46c15.39-.73 38.1-.49 50.07.49 21 1.95 21.98 2.2 22.71 8.06 1.71 12.46 5.37 11.48 21.49-5.86l15.63-16.85 26.87 1.22c14.65.49 26.87.49 26.87-.25 0-.98-6.11-3.66-13.92-6.35-8.55-2.93-15.63-7.57-18.8-11.72l-4.88-6.59 5.86-23.45c5.62-22.71 5.86-23.2 11.97-21.74 3.42.73 15.63 1.95 27.11 2.68 24.91 1.47 27.11 2.2 25.4 6.84-1.96 5.13-22.22 17.58-33.71 20.76-9.03 2.44-23.44 13.43-23.44 17.83 0 3.66 14.41 1.96 24.91-2.69 35.17-15.38 41.52-19.05 48.6-26.13 9.28-9.53 28.09-15.14 36.15-10.75 2.93 1.46 8.3 9.04 12.21 16.61 7.33 14.41 13.68 21.98 16.36 19.29.98-.73-1.71-11.72-5.86-24.18-3.91-12.46-8.06-29.55-8.79-37.61l-1.71-15.14 9.28 3.42c5.13 1.71 14.17 3.18 20.27 3.18h10.98l-12.94-4.64c-14.9-5.37-31.02-17.1-35.66-26.62-3.66-6.84-4.88-21.49-4.4-45.18l.49-14.41 27.6 1.71c21.25 1.22 28.82.73 33.46-1.96 41.03-22.71 68.14-39.56 72.78-44.94 20.03-23.45 24.91-29.55 36.88-46.4 27.84-40.05 36.88-67.16 36.88-111.61 0-19.54-.73-23.2-6.11-31.02-11.72-17.34-11.23-20.27 10.26-48.6l19.05-25.4.98-27.35c.73-25.89.98-27.35 6.35-28.58 2.93-.73 10.01-6.35 15.63-12.46 9.52-10.5 12.7-19.54 7.57-21.25-1.71-.49-2.93-10.99-3.42-25.4-.24-17.34-1.71-26.62-4.39-30.53-1.96-3.17-4.15-13.68-5.13-22.96-.98-14.65-.49-18.07 3.42-22.96 5.86-7.08 6.35-25.15.73-30.53-3.42-3.66-3.18-5.37 2.69-20.51 3.91-10.02 6.11-20.03 5.62-24.91-.73-7.33-1.71-8.55-7.08-8.55l-6.35.24 3.66-10.26c3.91-10.26 3.66-10.5-3.42-20.76-3.91-5.62-8.79-13.68-10.99-17.83-2.2-4.15-8.79-11.23-14.41-15.87-5.62-4.4-13.92-13.43-18.8-20.03-4.64-6.59-10.01-11.97-11.72-11.97-1.96 0-3.66-2.44-4.15-5.62-.73-4.88-2.2-5.37-15.88-6.11-13.92-.73-15.39-1.22-16.85-6.84-1.71-6.84-11.97-15.63-18.32-15.63-18.07 0-53.49 24.67-63.5 44.2-6.11 12.21-16.12 50.07-18.32 69.12-1.22 10.26-3.18 15.88-6.11 18.07-3.91 2.69-4.4 5.62-3.18 25.64 1.47 22.47 1.47 22.47-6.59 34.68-4.64 6.59-14.41 18.32-21.98 25.89-23.45 23.45-48.36 29.55-125.29 30.04-60.08.25-59.59.49-85.97-31.5-22.23-26.87-22.71-27.84-45.43-79.37-31.5-70.83-57.15-101.6-105.99-125.78-24.18-11.97-26.13-15.14-13.19-21.49 9.04-4.64 11.48-10.5 6.59-15.88-2.2-2.44-4.15-6.35-4.15-8.55 0-5.62-3.91-5.13-11.72.98l-6.59 5.13-.73-10.01c-.98-11.97-3.91-12.7-7.82-2.2l-3.17 8.06-1.47-7.08c-1.96-9.77-6.84-10.74-8.79-1.71-1.95 9.53-5.86 9.53-14.65.25-9.05-9.53-11-9.28-9.29 1.22zM588.9 789.89c1.71 4.88-4.64 40.3-10.99 60.08-2.69 9.04-8.3 20.27-12.46 25.16l-7.08 8.79h-53.24l2.2-6.84c8.3-28.33 22.22-48.85 39.08-57.64 10.01-5.38 21.49-15.14 32.48-28.09 4.88-6.1 8.06-6.59 10.01-1.46z" fill="rgba(255, 0, 255, 0.5)" stroke="none"/>
</svg>
</g></svg></g></g>
<!-- /image 17172 -->
</defs><rect x="0" y="0" width="250" height="250" fill="rgba(85, 170, 68, 1)"></rect><use xlink:href="#transformed-42567" transform="translate(-250, -250)"></use><use xlink:href="#transformed-42567" transform="translate(0, -250)"></use><use xlink:href="#transformed-42567" transform="translate(250, -250)"></use><use xlink:href="#transformed-42567" transform="translate(-250, 0)"></use><use xlink:href="#transformed-42567" transform="translate(0, 0)"></use><use xlink:href="#transformed-42567" transform="translate(250, 0)"></use><use xlink:href="#transformed-42567" transform="translate(-250, 250)"></use><use xlink:href="#transformed-42567" transform="translate(0, 250)"></use><use xlink:href="#transformed-42567" transform="translate(250, 250)"></use><use xlink:href="#transformed-32653" transform="translate(-250, -250)"></use><use xlink:href="#transformed-32653" transform="translate(0, -250)"></use><use xlink:href="#transformed-32653" transform="translate(250, -250)"></use><use xlink:href="#transformed-32653" transform="translate(-250, 0)"></use><use xlink:href="#transformed-32653" transform="translate(0, 0)"></use><use xlink:href="#transformed-32653" transform="translate(250, 0)"></use><use xlink:href="#transformed-32653" transform="translate(-250, 250)"></use><use xlink:href="#transformed-32653" transform="translate(0, 250)"></use><use xlink:href="#transformed-32653" transform="translate(250, 250)"></use><use xlink:href="#transformed-17172" transform="translate(-250, -250)"></use><use xlink:href="#transformed-17172" transform="translate(0, -250)"></use><use xlink:href="#transformed-17172" transform="translate(250, -250)"></use><use xlink:href="#transformed-17172" transform="translate(-250, 0)"></use><use xlink:href="#transformed-17172" transform="translate(0, 0)"></use><use xlink:href="#transformed-17172" transform="translate(250, 0)"></use><use xlink:href="#transformed-17172" transform="translate(-250, 250)"></use><use xlink:href="#transformed-17172" transform="translate(0, 250)"></use><use xlink:href="#transformed-17172" transform="translate(250, 250)"></use></svg>